<mxfile host="app.diagrams.net" modified="2023-03-06T06:18:35.448Z" agent="5.0 (Windows NT 10.0; Win64; x64) AppleWebKit/537.36 (KHTML, like Gecko) Chrome/110.0.0.0 Safari/537.36" etag="ZQmWCI_3t0JAd-i1gDzo" version="21.0.2" type="github">
  <diagram name="Page-1" id="Hs0amjgsZoVuPxWSP2nV">
    <mxGraphModel dx="1050" dy="1641" grid="1" gridSize="10" guides="1" tooltips="1" connect="1" arrows="1" fold="1" page="1" pageScale="1" pageWidth="850" pageHeight="1100" math="0" shadow="0">
      <root>
        <mxCell id="0" />
        <mxCell id="1" parent="0" />
        <mxCell id="W5EeRgu8wA9Q2RmdEl90-12" value="" style="whiteSpace=wrap;html=1;aspect=fixed;" parent="1" vertex="1">
          <mxGeometry x="450" y="-85" width="350" height="350" as="geometry" />
        </mxCell>
        <mxCell id="W5EeRgu8wA9Q2RmdEl90-15" style="edgeStyle=orthogonalEdgeStyle;rounded=0;orthogonalLoop=1;jettySize=auto;html=1;entryX=0;entryY=0.5;entryDx=0;entryDy=0;" parent="1" source="W5EeRgu8wA9Q2RmdEl90-9" target="W5EeRgu8wA9Q2RmdEl90-12" edge="1">
          <mxGeometry relative="1" as="geometry" />
        </mxCell>
        <mxCell id="W5EeRgu8wA9Q2RmdEl90-9" value="" style="whiteSpace=wrap;html=1;aspect=fixed;" parent="1" vertex="1">
          <mxGeometry x="10" y="-60" width="300" height="300" as="geometry" />
        </mxCell>
        <mxCell id="W5EeRgu8wA9Q2RmdEl90-1" value="Epic" style="whiteSpace=wrap;html=1;aspect=fixed;" parent="1" vertex="1">
          <mxGeometry x="40" y="-10" width="80" height="80" as="geometry" />
        </mxCell>
        <mxCell id="W5EeRgu8wA9Q2RmdEl90-2" value="Feature&lt;br&gt;" style="whiteSpace=wrap;html=1;aspect=fixed;" parent="1" vertex="1">
          <mxGeometry x="150" y="110" width="80" height="80" as="geometry" />
        </mxCell>
        <mxCell id="W5EeRgu8wA9Q2RmdEl90-3" value="DEV Task" style="whiteSpace=wrap;html=1;aspect=fixed;" parent="1" vertex="1">
          <mxGeometry x="575" y="100" width="80" height="80" as="geometry" />
        </mxCell>
        <mxCell id="W5EeRgu8wA9Q2RmdEl90-14" style="edgeStyle=orthogonalEdgeStyle;rounded=0;orthogonalLoop=1;jettySize=auto;html=1;entryX=0;entryY=0.5;entryDx=0;entryDy=0;exitX=0.5;exitY=1;exitDx=0;exitDy=0;" parent="1" source="W5EeRgu8wA9Q2RmdEl90-4" target="W5EeRgu8wA9Q2RmdEl90-3" edge="1">
          <mxGeometry relative="1" as="geometry" />
        </mxCell>
        <mxCell id="W5EeRgu8wA9Q2RmdEl90-4" value="User story&amp;nbsp;" style="whiteSpace=wrap;html=1;aspect=fixed;" parent="1" vertex="1">
          <mxGeometry x="470" y="-10" width="80" height="80" as="geometry" />
        </mxCell>
        <mxCell id="W5EeRgu8wA9Q2RmdEl90-5" value="Issue&lt;br&gt;" style="whiteSpace=wrap;html=1;aspect=fixed;" parent="1" vertex="1">
          <mxGeometry x="600" y="-210" width="80" height="80" as="geometry" />
        </mxCell>
        <mxCell id="W5EeRgu8wA9Q2RmdEl90-6" value="Issue tracker ( DXS Requirement Tracker)" style="rounded=1;whiteSpace=wrap;html=1;" parent="1" vertex="1">
          <mxGeometry x="500" y="-240" width="320" height="20" as="geometry" />
        </mxCell>
        <mxCell id="W5EeRgu8wA9Q2RmdEl90-7" value="" style="endArrow=classic;html=1;rounded=0;entryX=0;entryY=0.25;entryDx=0;entryDy=0;exitX=0.25;exitY=1;exitDx=0;exitDy=0;" parent="1" source="W5EeRgu8wA9Q2RmdEl90-1" target="W5EeRgu8wA9Q2RmdEl90-2" edge="1">
          <mxGeometry width="50" height="50" relative="1" as="geometry">
            <mxPoint x="150" y="210" as="sourcePoint" />
            <mxPoint x="200" y="160" as="targetPoint" />
            <Array as="points">
              <mxPoint x="60" y="130" />
            </Array>
          </mxGeometry>
        </mxCell>
        <mxCell id="W5EeRgu8wA9Q2RmdEl90-11" value="Portfolio Backlog&amp;nbsp;" style="text;html=1;strokeColor=none;fillColor=none;align=center;verticalAlign=middle;whiteSpace=wrap;rounded=0;" parent="1" vertex="1">
          <mxGeometry x="140" y="-50" width="60" height="30" as="geometry" />
        </mxCell>
        <mxCell id="W5EeRgu8wA9Q2RmdEl90-13" value="Product Backlog" style="text;html=1;strokeColor=none;fillColor=none;align=center;verticalAlign=middle;whiteSpace=wrap;rounded=0;" parent="1" vertex="1">
          <mxGeometry x="600" y="-70" width="60" height="30" as="geometry" />
        </mxCell>
        <mxCell id="W5EeRgu8wA9Q2RmdEl90-16" value="Epics for very large features such as the RVF rendering engine.&lt;br&gt;" style="text;html=1;strokeColor=none;fillColor=none;align=center;verticalAlign=middle;whiteSpace=wrap;rounded=0;" parent="1" vertex="1">
          <mxGeometry x="60" y="-150" width="250" height="30" as="geometry" />
        </mxCell>
        <mxCell id="W5EeRgu8wA9Q2RmdEl90-23" style="edgeStyle=orthogonalEdgeStyle;rounded=0;orthogonalLoop=1;jettySize=auto;html=1;" parent="1" source="W5EeRgu8wA9Q2RmdEl90-17" target="W5EeRgu8wA9Q2RmdEl90-18" edge="1">
          <mxGeometry relative="1" as="geometry" />
        </mxCell>
        <mxCell id="W5EeRgu8wA9Q2RmdEl90-24" style="edgeStyle=orthogonalEdgeStyle;rounded=0;orthogonalLoop=1;jettySize=auto;html=1;entryX=0.5;entryY=0;entryDx=0;entryDy=0;" parent="1" source="W5EeRgu8wA9Q2RmdEl90-17" target="W5EeRgu8wA9Q2RmdEl90-19" edge="1">
          <mxGeometry relative="1" as="geometry" />
        </mxCell>
        <mxCell id="W5EeRgu8wA9Q2RmdEl90-25" style="edgeStyle=orthogonalEdgeStyle;rounded=0;orthogonalLoop=1;jettySize=auto;html=1;entryX=0.5;entryY=0;entryDx=0;entryDy=0;" parent="1" source="W5EeRgu8wA9Q2RmdEl90-17" target="W5EeRgu8wA9Q2RmdEl90-20" edge="1">
          <mxGeometry relative="1" as="geometry" />
        </mxCell>
        <mxCell id="W5EeRgu8wA9Q2RmdEl90-17" value="Render Document Layout&amp;nbsp;" style="whiteSpace=wrap;html=1;aspect=fixed;fillColor=#ffe6cc;strokeColor=#d79b00;" parent="1" vertex="1">
          <mxGeometry x="320" y="400" width="80" height="80" as="geometry" />
        </mxCell>
        <mxCell id="pnvoJhoj5B9v5YCsvwhv-8" style="edgeStyle=orthogonalEdgeStyle;rounded=0;orthogonalLoop=1;jettySize=auto;html=1;entryX=0.018;entryY=0.66;entryDx=0;entryDy=0;entryPerimeter=0;" edge="1" parent="1" source="W5EeRgu8wA9Q2RmdEl90-18" target="pnvoJhoj5B9v5YCsvwhv-6">
          <mxGeometry relative="1" as="geometry">
            <mxPoint x="180" y="700" as="targetPoint" />
            <Array as="points">
              <mxPoint x="120" y="700" />
              <mxPoint x="180" y="699" />
            </Array>
          </mxGeometry>
        </mxCell>
        <mxCell id="W5EeRgu8wA9Q2RmdEl90-18" value="Add Document Branding on Form DISPLAY" style="whiteSpace=wrap;html=1;aspect=fixed;fillColor=#ffe6cc;strokeColor=#d79b00;" parent="1" vertex="1">
          <mxGeometry x="90" y="520" width="80" height="80" as="geometry" />
        </mxCell>
        <mxCell id="pnvoJhoj5B9v5YCsvwhv-7" style="edgeStyle=orthogonalEdgeStyle;rounded=0;orthogonalLoop=1;jettySize=auto;html=1;entryX=1;entryY=0.667;entryDx=0;entryDy=0;entryPerimeter=0;" edge="1" parent="1" source="W5EeRgu8wA9Q2RmdEl90-19" target="pnvoJhoj5B9v5YCsvwhv-6">
          <mxGeometry relative="1" as="geometry">
            <mxPoint x="360" y="640" as="targetPoint" />
            <Array as="points">
              <mxPoint x="360" y="700" />
            </Array>
          </mxGeometry>
        </mxCell>
        <mxCell id="W5EeRgu8wA9Q2RmdEl90-19" value="Add Document Branding on Form EXPORT" style="whiteSpace=wrap;html=1;aspect=fixed;fillColor=#ffe6cc;strokeColor=#d79b00;" parent="1" vertex="1">
          <mxGeometry x="320" y="520" width="80" height="80" as="geometry" />
        </mxCell>
        <mxCell id="pnvoJhoj5B9v5YCsvwhv-11" style="edgeStyle=orthogonalEdgeStyle;rounded=0;orthogonalLoop=1;jettySize=auto;html=1;entryX=0.5;entryY=0;entryDx=0;entryDy=0;" edge="1" parent="1" source="W5EeRgu8wA9Q2RmdEl90-20" target="pnvoJhoj5B9v5YCsvwhv-10">
          <mxGeometry relative="1" as="geometry">
            <mxPoint x="650" y="620" as="targetPoint" />
            <Array as="points">
              <mxPoint x="655" y="560" />
            </Array>
          </mxGeometry>
        </mxCell>
        <mxCell id="pnvoJhoj5B9v5YCsvwhv-12" style="edgeStyle=orthogonalEdgeStyle;rounded=0;orthogonalLoop=1;jettySize=auto;html=1;entryX=0.5;entryY=0;entryDx=0;entryDy=0;" edge="1" parent="1" source="W5EeRgu8wA9Q2RmdEl90-20" target="pnvoJhoj5B9v5YCsvwhv-9">
          <mxGeometry relative="1" as="geometry">
            <mxPoint x="500" y="620" as="targetPoint" />
            <Array as="points">
              <mxPoint x="505" y="560" />
            </Array>
          </mxGeometry>
        </mxCell>
        <mxCell id="W5EeRgu8wA9Q2RmdEl90-20" value="Render Document TABLES" style="whiteSpace=wrap;html=1;aspect=fixed;fillColor=#ffe6cc;strokeColor=#d79b00;" parent="1" vertex="1">
          <mxGeometry x="540" y="520" width="80" height="80" as="geometry" />
        </mxCell>
        <mxCell id="W5EeRgu8wA9Q2RmdEl90-22" style="edgeStyle=orthogonalEdgeStyle;rounded=0;orthogonalLoop=1;jettySize=auto;html=1;entryX=0.5;entryY=0;entryDx=0;entryDy=0;" parent="1" source="W5EeRgu8wA9Q2RmdEl90-21" target="W5EeRgu8wA9Q2RmdEl90-17" edge="1">
          <mxGeometry relative="1" as="geometry" />
        </mxCell>
        <mxCell id="W5EeRgu8wA9Q2RmdEl90-21" value="Render Interactive RVF templates V1" style="whiteSpace=wrap;html=1;aspect=fixed;fillColor=#e1d5e7;strokeColor=#9673a6;" parent="1" vertex="1">
          <mxGeometry x="320" y="280" width="80" height="80" as="geometry" />
        </mxCell>
        <mxCell id="pnvoJhoj5B9v5YCsvwhv-1" value="Bug" style="whiteSpace=wrap;html=1;aspect=fixed;" vertex="1" parent="1">
          <mxGeometry x="690" y="-10" width="80" height="80" as="geometry" />
        </mxCell>
        <mxCell id="pnvoJhoj5B9v5YCsvwhv-4" style="edgeStyle=orthogonalEdgeStyle;rounded=0;orthogonalLoop=1;jettySize=auto;html=1;exitX=0.5;exitY=1;exitDx=0;exitDy=0;" edge="1" parent="1" source="pnvoJhoj5B9v5YCsvwhv-1" target="pnvoJhoj5B9v5YCsvwhv-1">
          <mxGeometry relative="1" as="geometry" />
        </mxCell>
        <mxCell id="pnvoJhoj5B9v5YCsvwhv-5" value="" style="endArrow=classic;html=1;rounded=0;entryX=1;entryY=0.5;entryDx=0;entryDy=0;exitX=0.5;exitY=1;exitDx=0;exitDy=0;" edge="1" parent="1" source="pnvoJhoj5B9v5YCsvwhv-1" target="W5EeRgu8wA9Q2RmdEl90-3">
          <mxGeometry width="50" height="50" relative="1" as="geometry">
            <mxPoint x="690" y="140" as="sourcePoint" />
            <mxPoint x="740" y="90" as="targetPoint" />
            <Array as="points">
              <mxPoint x="730" y="140" />
            </Array>
          </mxGeometry>
        </mxCell>
        <mxCell id="pnvoJhoj5B9v5YCsvwhv-6" value="Add Automatic Publisher Branding on Display and Export of Document&lt;br&gt;" style="whiteSpace=wrap;html=1;aspect=fixed;fillColor=#dae8fc;strokeColor=#6c8ebf;" vertex="1" parent="1">
          <mxGeometry x="190" y="640" width="90" height="90" as="geometry" />
        </mxCell>
        <mxCell id="pnvoJhoj5B9v5YCsvwhv-9" value="Render Tables and Properties&amp;nbsp;" style="whiteSpace=wrap;html=1;aspect=fixed;fillColor=#dae8fc;strokeColor=#6c8ebf;" vertex="1" parent="1">
          <mxGeometry x="460" y="640" width="90" height="90" as="geometry" />
        </mxCell>
        <mxCell id="pnvoJhoj5B9v5YCsvwhv-10" value="Dont export sections of on-screen form&amp;nbsp;" style="whiteSpace=wrap;html=1;aspect=fixed;fillColor=#dae8fc;strokeColor=#6c8ebf;" vertex="1" parent="1">
          <mxGeometry x="610" y="640" width="90" height="90" as="geometry" />
        </mxCell>
        <mxCell id="pnvoJhoj5B9v5YCsvwhv-13" value="Main Epic&amp;nbsp;" style="text;html=1;strokeColor=none;fillColor=none;align=center;verticalAlign=middle;whiteSpace=wrap;rounded=0;" vertex="1" parent="1">
          <mxGeometry x="420" y="400" width="60" height="30" as="geometry" />
        </mxCell>
      </root>
    </mxGraphModel>
  </diagram>
</mxfile>
